<?xml version="1.0" encoding="UTF-8"?>
<svg id="Layer_4" data-name="Layer 4" xmlns="http://www.w3.org/2000/svg" viewBox="0 0 265.92 225">
  <defs>
    <style>
      .cls-1 {
        fill: none;
      }

      .cls-1, .cls-2 {
        stroke: #231f20;
        stroke-miterlimit: 10;
      }

      .cls-3 {
        fill: #fff;
      }

      .cls-4 {
        fill: #c3a629;
      }

      .cls-2 {
        fill: #231f20;
      }

      .cls-5 {
        fill: #4a57a6;
      }

      .cls-6 {
        fill: #fad233;
      }

      .cls-7 {
        fill: #aa286c;
      }

      .cls-8 {
        fill: #5ebe76;
      }

      .cls-9 {
        fill: #ee4196;
      }
    </style>
  </defs>
  <path class="cls-6" d="M169.54,12.44c-1.68,2.57-3.75,6.65-3.06,11.23,.86,5.71,5.18,6.79,5.62,11.74,.56,6.37-6.27,8.33-7.15,15.32-.94,7.5,5.83,14.07,8.17,16.34,8.16,7.92,18.36,8.98,32.17,10.21,17.42,1.56,26.13,2.34,32.68-3.06,7.75-6.39,4.06-13.68,15.32-25.53,3.79-3.99,6.57-5.65,9.19-10.72,1.08-2.09,4.58-8.87,3.06-16.34-2.32-11.46-14.88-16.87-18.38-18.38-6.08-2.62-14.86-2.29-32.17-1.53-21.41,.94-30.49,3.22-38.81,7.15-2.87,1.36-5.15,2.67-6.64,3.57Z"/>
  <path class="cls-9" d="M69.46,26.23c-21.57,.7-32.13,5.1-37.79,9.19-3.27,2.37-6.87,6.06-13.79,8.17-5.72,1.75-9.27,1.06-11.74,4.09-2.43,2.98-2.89,8.38-.51,10.72,3.19,3.15,8.65-2.02,16.34,.51,4.45,1.46,4.41,3.78,11.23,9.19,5.09,4.04,9.77,7.75,16.34,9.19,.63,.14,13.35,2.74,22.98-4.6,5.93-4.52,5.15-8.59,10.21-10.21,6.31-2.02,9.77,3.59,16.34,1.53,4.61-1.44,8.85-6.05,9.19-10.72,.31-4.29-2.91-5.46-9.7-15.83-5.48-8.38-5.09-10.23-8.17-12.26-2.59-1.71-8.51-4.12-20.94,1.02Z"/>
  <path class="cls-8" d="M157.8,115.59c-2.03,3.51-5.27,8.37-10.21,13.28-2.98,2.96-5.87,5.83-10.21,8.17-7.05,3.8-9.94,1.9-23.49,5.11-7.7,1.82-11.54,2.73-15.83,5.62-5.04,3.4-4.99,5.52-10.72,9.7-5.25,3.83-7.23,3.46-14.3,7.15-9.22,4.81-14.74,7.7-16.85,12.77-4.38,10.51,8.35,24.5,10.21,26.55,9.91,10.9,22.19,13.97,33.7,16.85,15.52,3.88,27.59,6.91,36.26,.51,8.49-6.26,4.73-14.93,15.32-24,7.69-6.58,11.44-3.54,19.4-10.21,1.94-1.62,4.75-4.34,14.3-25.02,9.06-19.6,10.16-25.01,10.21-30.64,.05-5.27,.11-11.33-4.09-15.83-6.52-6.99-18.48-5.07-21.45-4.6-5.49,.88-9.68,3.01-12.26,4.6Z"/>
  <path class="cls-4" d="M174.85,54.31c3.33-1.8,7.29-2.11,11.06-1.78s7.47,1.27,11.22,1.81c11.62,1.69,23.76-.46,34.08-6.05"/>
  <path class="cls-4" d="M236.01,46.85c-2.51,3.06-6.05,5.16-9.79,6.43s-7.72,1.75-11.67,1.98c-9.44,.55-18.96-.32-28.14-2.55"/>
  <path class="cls-7" d="M25.58,46.7c16.77,10.69,34.92,12.44,52.11,5.03"/>
  <path class="cls-7" d="M41.7,50.74c13.51,6.11,29.71,7.16,44.04,2.84"/>
  <path class="cls-4" d="M178.29,51.24c14.49,5.1,30.96,4.48,45.02-1.7"/>
  <path class="cls-7" d="M89.82,50.49c-1.88,2.39-5.67,3.88-9.57,4.52s-7.99,.52-12,.39"/>
  <path class="cls-1" d="M17.95,19.91c-5.45,2.04-10.89,4.09-16.34,6.13,2.72-3.23,5.45-6.47,8.17-9.7"/>
  <path class="cls-1" d="M13.36,14.29c2.38-3.36,6.75-8.44,13.79-11.74,1.98-.93,3.88-1.58,5.62-2.04,12.43,.68,24.85,1.36,37.28,2.04"/>
  <path class="cls-1" d="M84.85,3.57h7.15"/>
  <path class="cls-1" d="M178.29,34.21l11.74-8.17"/>
  <path class="cls-1" d="M183.4,27.06c5.46-.73,12.84-1.15,21.45,0,9.78,1.31,17.6,4.18,22.98,6.64"/>
  <path class="cls-1" d="M233.95,35.74c2.55,2.04,5.11,4.09,7.66,6.13"/>
  <path class="cls-1" d="M151.23,119.48c.93,1.22,2.26,3.28,3.06,6.13,.93,3.27,.74,6.06,.51,7.66"/>
  <path class="cls-1" d="M123.14,50.55c-1.27-5.51-4.66-16.27-14.3-24-7.62-6.11-15.22-7.17-29.62-9.19-8.52-1.19-22.82-3.06-40.85,1.02-10.74,2.43-19.21,6.16-25.02,9.19"/>
  <path class="cls-1" d="M33.27,14.29c-3.57,1.02-7.15,2.04-10.72,3.06"/>
  <path class="cls-3" d="M173.63,47.67c1.43-3.49,4.51-4.83,11.23-8.17,12.07-6,10.78-5.98,13.28-6.64,2.44-.64,9.34-2.45,16.85,0,5.39,1.76,4.82,3.67,14.81,8.68,4.68,2.35,6.61,2.84,6.64,4.09,.07,3.56-15.55,6.41-16.85,6.64-3.86,.68-9.25,1.6-16.34,1.02-10.23-.84-11.67-3.79-18.38-2.55-5.88,1.08-9.46,4.2-11.23,2.55-1.3-1.21-.64-4.06,0-5.62Z"/>
  <path class="cls-3" d="M236.09,46.39c-1.4,1.86-1.3,1.49-5.49,3.03-5.81,2.13-6.97,2.21-11.87,3.35q-6.21,1.45-14.1,.65c-5.65-.57-11.64-2.12-15.57-2.31-4.88-.24-5.72,.85-10.76,2.2-3.41,.92-5.09,2.27-6.4-1.69-.71-2.15,.12-5.56,3.75-8,3.28-2.2,2.01-.94,7.54-3.83,4.35-2.27,5.5-3.32,10.88-5.6s7.97-3.15,14.71-2.59c5.63,.47,5.45,.4,9.32,2.59,4.85,2.75,6.01,4.24,10.09,6.32,6.41,3.27,10.24,2.79,7.91,5.87Z"/>
  <path class="cls-3" d="M90.43,47.21c-.76,5.84-9.59,5.46-10.26,5.55-6.88,.96-12.52-.04-22.72-.04-8.65,0-9.12,.43-15.79-1.51-11.11-3.23-16.09-4.51-16.09-4.51,0,0,1.56-3.02,10.71-9.21,6.3-4.26,14.66-6.94,24.63-6.94,11.45,0,12.6,4.73,20.16,7.98,7.56,3.25,10,3.76,9.36,8.68Z"/>
  <path class="cls-5" d="M189.8,37.39c-.67,.93-1.69,2.61-2.04,4.94-.17,1.11-.47,3.08,.51,5.28,.27,.6,1.14,2.37,3.06,3.57,1.44,.9,2.22,.71,6.3,1.19,3.89,.46,5.09,.86,8.68,1.02,2.31,.1,3.33,0,4.43-.51,1.83-.85,2.79-2.36,3.23-3.06,1.09-1.75,1.26-3.34,1.53-6.13,.3-3.15,.46-4.73-.17-6.3-1.11-2.78-3.66-4.19-4.94-4.77,1.26,.35,1.54,.47,1.53,.51-.04,.19-6-2.32-11.91-.51-1.02,.31-2.27,.89-4.77,2.04-2.29,1.06-4.16,2.03-5.45,2.72Z"/>
  <path class="cls-5" d="M58.49,30.53c1.61,.68,2.36,2.11,3.4,4.09,.73,1.39,2.24,4.35,1.87,8.34-.14,1.52-.42,4.58-2.72,6.98-2.2,2.29-4.99,2.66-8,3.06-3.9,.52-8.64,1.15-11.91-1.87-2.75-2.53-3.07-6.33-3.23-8.34-.25-2.95,.36-5.35,.85-6.81,2.91-1.73,5.54-2.77,7.49-3.4,1.21-.39,2.68-.72,5.62-1.36,5-1.1,5.84-1.02,6.64-.68Z"/>
  <path class="cls-2" d="M44.12,38.05c-.31,.19-2.08,1.33-2.38,3.4-.32,2.25,1.33,3.89,2.04,4.6,.65,.65,2.27,2.25,4.6,2.04,2.99-.26,4.35-3.24,4.43-3.4,.18-.41,.95-2.17,.17-4.09-.79-1.93-2.61-2.65-3.23-2.89-2.66-1.05-5.12,.1-5.62,.34Z"/>
  <path class="cls-2" d="M195.02,38.23c-.31,.19-2.08,1.33-2.38,3.4-.32,2.25,1.33,3.89,2.04,4.6,.65,.65,2.27,2.25,4.6,2.04,2.99-.26,4.35-3.24,4.43-3.4,.18-.41,.95-2.17,.17-4.09-.79-1.93-2.61-2.65-3.23-2.89-2.66-1.05-5.12,.1-5.62,.34Z"/>
  <path class="cls-1" d="M121.61,110.8c-1.49,6.79-2.19,12.55-2.55,16.85-.68,8.12-.09,10.38,1.02,12.26,2.27,3.82,6.25,5.23,10.21,6.64,2.37,.84,8.01,2.76,14.81,1.02,2.67-.68,4.74-1.73,6.13-2.55"/>
  <path class="cls-1" d="M169.1,130.72c1.85,1.64,5.07,4.99,6.64,10.21,.81,2.7,2.07,6.9,0,11.23-.56,1.18-2.46,4.65-6.64,6.13-5.47,1.94-10.2-1.17-10.72-1.53,2.03-.09,3.64-.12,4.72-.13,1.6-.02,2.33,0,2.68-.51,.46-.68,.03-1.99-.77-2.68-.66-.57-1.47-.63-4.09-.38-3.44,.32-5.15,.48-6.38,1.02-1.14,.5-1.01,.68-3.96,2.81-2.87,2.08-4.31,3.12-5.74,3.7-2.88,1.17-5.48,1.16-6.64,1.15-1.68-.02-3.08-.27-4.09-.51"/>
  <path class="cls-1" d="M101.83,129.57c-2.55,2.45-4.09,4.87-4.98,6.51-2.69,4.98-2.9,9.29-2.94,10.34-.1,3.05-.17,5.4,1.4,6.77,1.64,1.43,4.74,1.49,7.15,1.53,.51,0,1.15,0,2.17,.08,2.26,.17,3.41,.26,4.34,.94,.99,.72,1.94,2.17,1.53,3.06-.57,1.27-3.9,1.59-5.23,.13-1.41-1.55-.31-4.82,1.53-6.38,1.04-.89,2.17-1.1,3.19-1.28,3.62-.63,6.7,.78,8.3,1.53,1.69,.8,1.76,1.12,5.87,3.7,1.77,1.11,3.25,1.99,4.21,2.55"/>
  <path class="cls-1" d="M187.48,63.22c2.11,1.1,4.85,2.26,8.17,3.06,5.93,1.43,11.04,1.04,14.3,.51"/>
</svg>